<svg width="40" height="40" viewBox="0 0 40 40" fill="none" xmlns="http://www.w3.org/2000/svg">
<g id="User / User_Square">
<path id="Vector" d="M28.3333 35C28.3333 30.3976 24.6024 26.6667 20 26.6667C15.3976 26.6667 11.6667 30.3976 11.6667 35M28.3333 35H29.6718C31.535 35 32.4667 35 33.179 34.637C33.8062 34.3175 34.3175 33.8062 34.637 33.179C35 32.4667 35 31.535 35 29.6718V10.3282C35 8.46499 35 7.532 34.637 6.81966C34.3175 6.19245 33.8062 5.68289 33.179 5.36331C32.466 5 31.5338 5 29.667 5H10.3337C8.46682 5 7.5327 5 6.81966 5.36331C6.19245 5.68289 5.68289 6.19245 5.36331 6.81966C5 7.5327 5 8.46682 5 10.3337V29.667C5 31.5338 5 32.466 5.36331 33.179C5.68289 33.8062 6.19245 34.3175 6.81966 34.637C7.532 35 8.46499 35 10.3282 35H11.6667M28.3333 35H11.6667M20 21.6667C17.2386 21.6667 15 19.4281 15 16.6667C15 13.9052 17.2386 11.6667 20 11.6667C22.7614 11.6667 25 13.9052 25 16.6667C25 19.4281 22.7614 21.6667 20 21.6667Z" stroke="black" stroke-width="2" stroke-linecap="round" stroke-linejoin="round"/>
</g>
</svg>
